<mxfile host="65bd71144e">
    <diagram id="VLzSiQ1vwkfL7_Nn3BTM" name="Page-1">
        <mxGraphModel dx="875" dy="1609" grid="0" gridSize="10" guides="1" tooltips="1" connect="1" arrows="1" fold="1" page="1" pageScale="1" pageWidth="850" pageHeight="1100" math="0" shadow="0">
            <root>
                <mxCell id="0"/>
                <mxCell id="1" parent="0"/>
                <mxCell id="63" value="" style="rounded=0;whiteSpace=wrap;html=1;fillColor=#FFFFFF;strokeColor=none;strokeWidth=0;" parent="1" vertex="1">
                    <mxGeometry x="98" y="-530" width="535" height="510" as="geometry"/>
                </mxCell>
                <mxCell id="49" style="edgeStyle=none;html=1;entryX=0;entryY=0.75;entryDx=0;entryDy=0;strokeColor=#009999;strokeWidth=2;" parent="1" target="61" edge="1">
                    <mxGeometry relative="1" as="geometry">
                        <mxPoint x="330" y="-443" as="sourcePoint"/>
                        <mxPoint x="457.5" y="-446" as="targetPoint"/>
                    </mxGeometry>
                </mxCell>
                <mxCell id="50" value="&lt;b&gt;&lt;font color=&quot;#009999&quot;&gt;App Idle&lt;br&gt;or Playing&lt;/font&gt;&lt;/b&gt;" style="rounded=1;whiteSpace=wrap;html=1;fillColor=none;strokeColor=#009999;fontColor=#000000;strokeWidth=2;" parent="1" vertex="1">
                    <mxGeometry x="210" y="-488" width="120" height="58" as="geometry"/>
                </mxCell>
                <mxCell id="51" style="edgeStyle=none;html=1;fontSize=12;strokeColor=#009999;strokeWidth=2;" parent="1" source="52" target="50" edge="1">
                    <mxGeometry relative="1" as="geometry">
                        <mxPoint x="260" y="-458.0000000000001" as="targetPoint"/>
                    </mxGeometry>
                </mxCell>
                <mxCell id="52" value="" style="ellipse;fillColor=#009999;strokeColor=none;strokeWidth=2;" parent="1" vertex="1">
                    <mxGeometry x="120" y="-468" width="20" height="20" as="geometry"/>
                </mxCell>
                <mxCell id="53" style="edgeStyle=none;html=1;entryX=0.5;entryY=1;entryDx=0;entryDy=0;exitX=0;exitY=0.5;exitDx=0;exitDy=0;strokeColor=#009999;strokeWidth=2;" parent="1" source="55" target="50" edge="1">
                    <mxGeometry relative="1" as="geometry">
                        <Array as="points">
                            <mxPoint x="270" y="-340"/>
                        </Array>
                        <mxPoint x="470" y="-348" as="sourcePoint"/>
                    </mxGeometry>
                </mxCell>
                <mxCell id="54" style="edgeStyle=none;html=1;strokeColor=#009999;fontColor=#009999;strokeWidth=2;" parent="1" source="61" target="55" edge="1">
                    <mxGeometry relative="1" as="geometry"/>
                </mxCell>
                <mxCell id="55" value="&lt;b&gt;&lt;font color=&quot;#009999&quot;&gt;Project Deleted&lt;/font&gt;&lt;/b&gt;" style="rounded=1;whiteSpace=wrap;html=1;fillColor=none;strokeColor=#009999;fontColor=#000000;strokeWidth=2;" parent="1" vertex="1">
                    <mxGeometry x="450" y="-370" width="120" height="60" as="geometry"/>
                </mxCell>
                <mxCell id="57" value="&lt;div&gt;&lt;b&gt;Delete&lt;/b&gt;&lt;/div&gt;&lt;div&gt;[n &amp;gt; 0]&lt;/div&gt;&lt;div&gt;&lt;span&gt;/n = n-1&lt;/span&gt;&lt;/div&gt;" style="text;html=1;strokeColor=none;fillColor=none;align=left;verticalAlign=middle;whiteSpace=wrap;rounded=0;fontSize=12;fontColor=#009999;" parent="1" vertex="1">
                    <mxGeometry x="519" y="-413" width="50" height="30" as="geometry"/>
                </mxCell>
                <mxCell id="58" value="&lt;b&gt;Unselect&lt;/b&gt;" style="text;html=1;strokeColor=none;fillColor=none;align=left;verticalAlign=middle;whiteSpace=wrap;rounded=0;fontSize=12;fontColor=#000000;" parent="1" vertex="1">
                    <mxGeometry x="350" y="-505" width="50" height="30" as="geometry"/>
                </mxCell>
                <mxCell id="59" value="&lt;b&gt;&lt;font color=&quot;#009999&quot;&gt;Valid Delete&lt;/font&gt;&lt;/b&gt;" style="text;html=1;strokeColor=none;fillColor=none;align=left;verticalAlign=middle;whiteSpace=wrap;rounded=0;fontSize=12;fontColor=#000000;" parent="1" vertex="1">
                    <mxGeometry x="322" y="-374" width="70" height="30" as="geometry"/>
                </mxCell>
                <mxCell id="60" value="&lt;b&gt;Select&lt;/b&gt;&lt;br&gt;[n&amp;gt;0]" style="text;html=1;strokeColor=none;fillColor=none;align=left;verticalAlign=middle;whiteSpace=wrap;rounded=0;fontSize=12;fontColor=#009999;strokeWidth=2;" parent="1" vertex="1">
                    <mxGeometry x="357.5" y="-474" width="42.5" height="30" as="geometry"/>
                </mxCell>
                <mxCell id="61" value="&lt;b&gt;&lt;font color=&quot;#009999&quot;&gt;Project Selected&lt;/font&gt;&lt;/b&gt;" style="rounded=1;whiteSpace=wrap;html=1;fontSize=12;fillColor=none;strokeColor=#009999;fontColor=#000000;strokeWidth=2;" parent="1" vertex="1">
                    <mxGeometry x="450" y="-488" width="120" height="60" as="geometry"/>
                </mxCell>
                <mxCell id="62" style="edgeStyle=none;html=1;entryX=1;entryY=0.25;entryDx=0;entryDy=0;exitX=-0.002;exitY=0.134;exitDx=0;exitDy=0;exitPerimeter=0;strokeColor=#000000;" parent="1" source="61" edge="1">
                    <mxGeometry relative="1" as="geometry">
                        <mxPoint x="470" y="-480" as="sourcePoint"/>
                        <mxPoint x="330" y="-480.5" as="targetPoint"/>
                    </mxGeometry>
                </mxCell>
                <mxCell id="64" style="edgeStyle=none;html=1;entryX=0;entryY=0.75;entryDx=0;entryDy=0;strokeColor=#FF9933;strokeWidth=2;" parent="1" target="76" edge="1">
                    <mxGeometry relative="1" as="geometry">
                        <mxPoint x="360" y="-186" as="sourcePoint"/>
                        <mxPoint x="487.5" y="-189" as="targetPoint"/>
                    </mxGeometry>
                </mxCell>
                <mxCell id="65" value="&lt;font color=&quot;#ff9933&quot;&gt;&lt;b&gt;App Idle&lt;br&gt;or Playing&lt;/b&gt;&lt;/font&gt;" style="rounded=1;whiteSpace=wrap;html=1;fillColor=none;strokeColor=#FF9933;fontColor=#000000;strokeWidth=2;" parent="1" vertex="1">
                    <mxGeometry x="240" y="-231" width="120" height="58" as="geometry"/>
                </mxCell>
                <mxCell id="66" style="edgeStyle=none;html=1;fontSize=12;strokeColor=#FF9933;strokeWidth=2;" parent="1" source="67" target="65" edge="1">
                    <mxGeometry relative="1" as="geometry">
                        <mxPoint x="290" y="-201.0000000000001" as="targetPoint"/>
                    </mxGeometry>
                </mxCell>
                <mxCell id="67" value="" style="ellipse;fillColor=#FF9933;strokeColor=#FF9933;strokeWidth=2;" parent="1" vertex="1">
                    <mxGeometry x="150" y="-211" width="20" height="20" as="geometry"/>
                </mxCell>
                <mxCell id="68" style="edgeStyle=none;html=1;entryX=0.5;entryY=1;entryDx=0;entryDy=0;exitX=0;exitY=0.5;exitDx=0;exitDy=0;strokeColor=#000000;" parent="1" source="70" target="65" edge="1">
                    <mxGeometry relative="1" as="geometry">
                        <Array as="points">
                            <mxPoint x="300" y="-83"/>
                        </Array>
                        <mxPoint x="500" y="-91" as="sourcePoint"/>
                    </mxGeometry>
                </mxCell>
                <mxCell id="69" style="edgeStyle=none;html=1;strokeColor=#000000;" parent="1" source="76" target="70" edge="1">
                    <mxGeometry relative="1" as="geometry"/>
                </mxCell>
                <mxCell id="70" value="Project Deleted" style="rounded=1;whiteSpace=wrap;html=1;fillColor=none;strokeColor=#000000;fontColor=#000000;" parent="1" vertex="1">
                    <mxGeometry x="480" y="-113" width="120" height="60" as="geometry"/>
                </mxCell>
                <mxCell id="71" value="" style="edgeStyle=none;html=1;fontColor=#000000;strokeColor=#000000;" parent="1" source="72" target="76" edge="1">
                    <mxGeometry relative="1" as="geometry"/>
                </mxCell>
                <mxCell id="72" value="&lt;div&gt;&lt;b&gt;Delete&lt;/b&gt;&lt;/div&gt;&lt;div&gt;[n &amp;gt; 0]&lt;/div&gt;&lt;div&gt;&lt;span&gt;/n = n-1&lt;/span&gt;&lt;/div&gt;" style="text;html=1;strokeColor=none;fillColor=none;align=left;verticalAlign=middle;whiteSpace=wrap;rounded=0;fontSize=12;fontColor=#000000;" parent="1" vertex="1">
                    <mxGeometry x="549" y="-156" width="50" height="30" as="geometry"/>
                </mxCell>
                <mxCell id="73" value="&lt;b&gt;&lt;font color=&quot;#ff9933&quot;&gt;Unselect&lt;/font&gt;&lt;/b&gt;" style="text;html=1;strokeColor=none;fillColor=none;align=left;verticalAlign=middle;whiteSpace=wrap;rounded=0;fontSize=12;fontColor=#000000;" parent="1" vertex="1">
                    <mxGeometry x="380" y="-248" width="50" height="30" as="geometry"/>
                </mxCell>
                <mxCell id="74" value="&lt;b&gt;Valid Delete&lt;/b&gt;" style="text;html=1;strokeColor=none;fillColor=none;align=left;verticalAlign=middle;whiteSpace=wrap;rounded=0;fontSize=12;fontColor=#000000;" parent="1" vertex="1">
                    <mxGeometry x="369" y="-118" width="70" height="30" as="geometry"/>
                </mxCell>
                <mxCell id="75" value="&lt;font color=&quot;#ff9933&quot;&gt;&lt;b&gt;Select&lt;/b&gt;&lt;br&gt;[n&amp;gt;0]&lt;/font&gt;" style="text;html=1;strokeColor=none;fillColor=none;align=left;verticalAlign=middle;whiteSpace=wrap;rounded=0;fontSize=12;fontColor=#000000;" parent="1" vertex="1">
                    <mxGeometry x="387.5" y="-217" width="42.5" height="30" as="geometry"/>
                </mxCell>
                <mxCell id="76" value="&lt;font color=&quot;#ff9933&quot;&gt;&lt;b&gt;Project Selected&lt;/b&gt;&lt;/font&gt;" style="rounded=1;whiteSpace=wrap;html=1;fontSize=12;fillColor=none;strokeColor=#FF9933;fontColor=#000000;strokeWidth=2;" parent="1" vertex="1">
                    <mxGeometry x="480" y="-231" width="120" height="60" as="geometry"/>
                </mxCell>
                <mxCell id="77" style="edgeStyle=none;html=1;entryX=1;entryY=0.25;entryDx=0;entryDy=0;exitX=-0.002;exitY=0.134;exitDx=0;exitDy=0;exitPerimeter=0;strokeColor=#FF9933;strokeWidth=2;" parent="1" source="76" edge="1">
                    <mxGeometry relative="1" as="geometry">
                        <mxPoint x="500" y="-223" as="sourcePoint"/>
                        <mxPoint x="360" y="-223.5" as="targetPoint"/>
                    </mxGeometry>
                </mxCell>
            </root>
        </mxGraphModel>
    </diagram>
</mxfile>